<svg width="32" height="32" viewBox="0 0 32 32" fill="none" xmlns="http://www.w3.org/2000/svg">
<path d="M0.0243916 28.9704C0.325505 28.0272 0.663982 26.9331 1.02004 25.8457C3.62237 17.9363 6.22761 10.0269 8.83579 2.11754C8.89456 1.91702 8.96804 1.72118 9.05559 1.53166C9.3589 0.912497 9.3567 -0.0218043 10.337 0.00038819C11.1963 0.0225806 11.2799 0.8548 11.5502 1.44512C13.9481 6.69585 16.3109 11.9621 18.7505 17.2018C19.2781 18.3314 19.1088 18.9771 18.0692 19.6429C12.6931 23.0472 7.35221 26.5048 1.98273 29.918C1.54315 30.2043 1.02224 30.6238 0.413418 30.2398C0.00680588 29.9779 -0.0415457 29.5629 0.0243916 28.9704Z" fill="#3EEC93"/>
<path d="M5.85617 31.3181C5.31548 31.3425 4.7748 31.2937 4.56819 30.6967C4.32642 29.9932 4.85612 29.6447 5.33747 29.3385C9.04094 26.9773 12.9005 24.8312 16.4149 22.2103C18.9975 20.284 21.2503 19.5472 24.2285 21.2228C26.2814 22.3834 28.598 23.0669 30.7914 23.9723C31.3189 24.1943 31.9146 24.4162 31.8904 25.1197C31.8663 25.8233 31.2574 26.0207 30.6969 26.1384C22.5691 27.8634 14.4427 29.5738 6.31773 31.2692C6.16478 31.2933 6.01074 31.3096 5.85617 31.3181Z" fill="#6FCD82"/>
<path d="M30.4695 22.4569C29.5618 22.0907 28.4694 21.6247 27.3617 21.2074C25.6275 20.5417 23.9813 19.654 22.146 19.2678C21.2361 19.0725 20.658 18.3801 20.2778 17.5302C18.4579 13.5075 16.641 9.48248 14.8269 5.4553C14.7413 5.26444 14.6731 5.06692 14.6072 4.87384C14.3875 4.30349 13.9677 3.69988 14.7567 3.24271C15.438 2.84546 15.9237 3.23161 16.3677 3.72428C19.1107 6.76465 21.8545 9.80354 24.5989 12.8409C26.8847 15.3842 29.1552 17.9452 31.4344 20.4862C31.83 20.9301 32.1838 21.3917 31.8938 22.0153C31.6454 22.5302 31.1641 22.5346 30.4695 22.4569Z" fill="#1A7D40"/>
</svg>
