<svg width="85" height="85" viewBox="0 0 85 85" fill="none" xmlns="http://www.w3.org/2000/svg">
<g id="Group 34542">
<g id="Ellipse 89" filter="url(#filter0_d_5527_783)">
<circle cx="42.5" cy="38.5" r="34.5" fill="url(#paint0_linear_5527_783)"/>
</g>
<path id="Vector" fill-rule="evenodd" clip-rule="evenodd" d="M43.102 53.3064C44.6149 53.2009 46.1148 52.9553 47.5826 52.5728C49.394 53.1276 51.309 53.2531 53.1769 52.9396C53.2508 52.9276 53.3256 52.9218 53.4005 52.9223C54.067 52.9223 54.9421 53.3108 56.217 54.1307V52.7821C56.2173 52.5487 56.2793 52.3197 56.3968 52.1183C56.5143 51.917 56.683 51.7506 56.8857 51.6362C57.4404 51.3212 57.9564 50.9587 58.4272 50.5594C60.2848 48.9799 61.334 46.8738 61.334 44.6425C61.334 43.8937 61.2158 43.1665 60.9922 42.4717C61.5533 41.4208 62.007 40.316 62.3402 39.1701C63.4177 40.7907 63.995 42.6942 64 44.6425C64 47.6744 62.5939 50.5012 60.1623 52.5684C59.7564 52.9132 59.3291 53.2318 58.883 53.5222V56.6749C58.883 57.7603 57.636 58.3839 56.7567 57.7387C55.9251 57.1149 55.0641 56.5315 54.1767 55.9908C53.9225 55.8382 53.6581 55.7034 53.3855 55.5873C52.6545 55.6974 51.9063 55.7535 51.1516 55.7535C48.1158 55.7535 45.3122 54.8407 43.1042 53.3064H43.102ZM27.0501 47.0011C23.2145 43.7362 21 39.2888 21 34.522C21 24.7835 30.1547 17 41.3326 17C52.5126 17 61.6673 24.7835 61.6673 34.522C61.6673 44.2627 52.5104 52.0462 41.3326 52.0462C40.077 52.0462 38.8343 51.9491 37.6174 51.7549C37.0906 51.8801 34.9858 53.136 31.9521 55.3586C30.8534 56.1656 29.2947 55.3866 29.2947 54.0293V48.6519C28.5091 48.1548 27.7591 47.6032 27.0501 47.0011ZM37.6905 48.4382C37.7829 48.4382 37.8775 48.4447 37.9699 48.4598C39.0665 48.6454 40.1931 48.7403 41.3326 48.7403C50.7754 48.7403 58.3326 42.3142 58.3326 34.522C58.3326 26.7321 50.7754 20.3059 41.3326 20.3059C31.8941 20.3059 24.3325 26.7321 24.3325 34.522C24.3325 38.2897 26.0977 41.8373 29.2194 44.4915C30.0042 45.1561 30.8664 45.7603 31.7909 46.2868C32.309 46.5803 32.6294 47.1284 32.6294 47.7197V50.8206C35.0288 49.2043 36.6068 48.4382 37.6905 48.4382ZM32.6659 37.8301C31.1931 37.8301 29.9999 36.6432 29.9999 35.1845C29.9999 33.7236 31.1931 32.5389 32.6659 32.5389C34.1386 32.5389 35.3319 33.7236 35.3319 35.1845C35.3319 36.6454 34.1386 37.8301 32.6659 37.8301ZM41.3326 37.8301C39.8598 37.8301 38.6666 36.6432 38.6666 35.1845C38.6666 33.7236 39.8598 32.5389 41.3326 32.5389C42.8053 32.5389 43.9986 33.7236 43.9986 35.1845C43.9986 36.6454 42.8053 37.8301 41.3326 37.8301ZM49.9992 37.8301C48.5265 37.8301 47.3332 36.6432 47.3332 35.1845C47.3332 33.7236 48.5265 32.5389 49.9992 32.5389C51.472 32.5389 52.6652 33.7236 52.6652 35.1845C52.6652 36.6454 51.472 37.8301 49.9992 37.8301Z" fill="white"/>
</g>
<defs>
<filter id="filter0_d_5527_783" x="0" y="0" width="85" height="85" filterUnits="userSpaceOnUse" color-interpolation-filters="sRGB">
<feFlood flood-opacity="0" result="BackgroundImageFix"/>
<feColorMatrix in="SourceAlpha" type="matrix" values="0 0 0 0 0 0 0 0 0 0 0 0 0 0 0 0 0 0 127 0" result="hardAlpha"/>
<feOffset dy="4"/>
<feGaussianBlur stdDeviation="4"/>
<feComposite in2="hardAlpha" operator="out"/>
<feColorMatrix type="matrix" values="0 0 0 0 0.72549 0 0 0 0 0.72549 0 0 0 0 0.839216 0 0 0 0.75 0"/>
<feBlend mode="normal" in2="BackgroundImageFix" result="effect1_dropShadow_5527_783"/>
<feBlend mode="normal" in="SourceGraphic" in2="effect1_dropShadow_5527_783" result="shape"/>
</filter>
<linearGradient id="paint0_linear_5527_783" x1="15" y1="19" x2="133" y2="89" gradientUnits="userSpaceOnUse">
<stop stop-color="#31B3AE"/>
<stop offset="1" stop-color="#1487FF"/>
</linearGradient>
</defs>
</svg>
